<svg width="556" height="563" viewBox="0 0 556 563" fill="none" xmlns="http://www.w3.org/2000/svg">
<path d="M554.562 552.146C554.562 556.681 550.884 560.345 546.363 560.345C541.841 560.345 538.163 556.667 538.163 552.146C538.163 547.624 541.841 543.946 546.363 543.946C550.884 543.946 554.562 547.624 554.562 552.146Z" stroke="#5177D6" stroke-miterlimit="10"/>
<path d="M25.6494 554.096C25.6494 558.631 21.9714 562.295 17.4499 562.295C12.9285 562.295 9.25049 558.617 9.25049 554.096C9.25049 549.574 12.9285 545.896 17.4499 545.896C21.9714 545.896 25.6494 549.574 25.6494 554.096Z" stroke="#5177D6" stroke-miterlimit="10"/>
<path d="M545.063 275.817V281.362C545.063 284.984 542.74 288.344 539.228 289.229C538.025 289.533 536.573 289.727 534.817 289.727" stroke="white" stroke-linecap="round" stroke-linejoin="round"/>
<path d="M545.063 275.817V281.362C545.063 284.984 547.386 288.344 550.898 289.229C552.101 289.533 553.553 289.727 555.309 289.727" stroke="white" stroke-linecap="round" stroke-linejoin="round"/>
<path d="M545.063 303.65V298.106C545.063 294.483 547.386 291.123 550.898 290.238C552.101 289.934 553.553 289.741 555.309 289.741" stroke="white" stroke-linecap="round" stroke-linejoin="round"/>
<path d="M545.063 303.65V298.106C545.063 294.483 542.74 291.123 539.228 290.238C538.025 289.934 536.573 289.741 534.817 289.741" stroke="white" stroke-linecap="round" stroke-linejoin="round"/>
<path d="M10.9373 211.274V216.818C10.9373 220.441 8.61431 223.801 5.10224 224.686C3.89928 224.99 2.44744 225.183 0.691406 225.183" stroke="white" stroke-linecap="round" stroke-linejoin="round"/>
<path d="M10.9375 211.274V216.818C10.9375 220.441 13.2604 223.801 16.7725 224.686C17.9755 224.99 19.4273 225.183 21.1834 225.183" stroke="white" stroke-linecap="round" stroke-linejoin="round"/>
<path d="M10.9375 239.107V233.562C10.9375 229.94 13.2604 226.58 16.7725 225.695C17.9755 225.391 19.4273 225.197 21.1834 225.197" stroke="white" stroke-linecap="round" stroke-linejoin="round"/>
<path d="M10.9373 239.107V233.562C10.9373 229.94 8.61431 226.58 5.10224 225.695C3.89928 225.391 2.44744 225.197 0.691406 225.197" stroke="white" stroke-linecap="round" stroke-linejoin="round"/>
<path d="M282.998 0.691284V6.23583C282.998 9.85846 280.675 13.2184 277.163 14.1033C275.96 14.4075 274.508 14.6011 272.752 14.6011" stroke="white" stroke-linecap="round" stroke-linejoin="round"/>
<path d="M282.999 0.691284V6.23583C282.999 9.85846 285.321 13.2184 288.834 14.1033C290.037 14.4075 291.488 14.6011 293.244 14.6011" stroke="white" stroke-linecap="round" stroke-linejoin="round"/>
<path d="M282.999 28.5246V22.9801C282.999 19.3575 285.321 15.9975 288.834 15.1126C290.037 14.8084 291.488 14.6149 293.244 14.6149" stroke="white" stroke-linecap="round" stroke-linejoin="round"/>
<path d="M282.998 28.5246V22.9801C282.998 19.3575 280.675 15.9975 277.163 15.1126C275.96 14.8084 274.508 14.6149 272.752 14.6149" stroke="white" stroke-linecap="round" stroke-linejoin="round"/>
<g clip-path="url(#clip0_279_58)">
<path d="M151.645 356.411C128.467 342.894 113.773 327.107 106 317.138L130.952 306.104L139.328 285.847C142.168 290.14 154.165 306.601 178.975 319.692C169.888 331.967 160.766 344.207 151.645 356.446V356.411Z" fill="#01AFB8"/>
<path d="M393.462 311.177C416.639 297.483 430.162 282.122 434.918 276.126L439.746 302.557L462 314.051C451.742 324.978 434.918 340.127 411.138 353.324C405.033 339.382 398.999 325.368 393.462 311.213V311.177Z" fill="#01AFB8"/>
<path d="M440.101 318.769C440.101 318.769 431.618 334.876 411.138 353.324L397.721 317.35L440.101 318.805V318.769Z" fill="#06757B"/>
<path d="M179.827 318.77C179.827 318.77 172.16 337.998 151.645 356.411L129.177 321.466L179.827 318.77Z" fill="#06757B"/>
<path d="M277.966 290.707C274.736 290.778 226.465 298.76 202.329 233.837C178.194 168.914 171.273 240.436 185.683 258.671C185.683 258.671 145.646 250.795 184.086 283.151C184.086 283.151 149.018 302.556 195.444 308.304C195.444 308.304 164.955 340.304 216.456 332.251C216.456 332.251 215.001 361.626 250.21 348.074C285.42 334.557 277.931 290.743 277.931 290.743L277.966 290.707Z" fill="#FFFBD2"/>
<path d="M297.736 287.088C300.931 286.627 349.876 286.734 363.186 218.76C376.532 150.786 394.917 220.25 383.631 240.578C383.631 240.578 421.857 226.352 389.132 264.49C389.132 264.49 426.897 277.971 381.998 291.133C381.998 291.133 417.243 317.776 365.138 318.166C365.138 318.166 371.314 346.903 334.401 339.24C297.452 331.577 297.772 287.124 297.772 287.124L297.736 287.088Z" fill="#FFFBD2"/>
<path d="M264.585 300.57C264.585 300.57 224.052 325.013 216.101 362.229C216.101 362.229 226.43 376.384 246.306 375.107C266.182 373.83 264.585 300.534 264.585 300.534V300.57Z" fill="white"/>
<path opacity="0.6" d="M263.804 313.519C263.804 313.519 230.653 333.493 218.443 364.89C222.525 368.899 231.895 376.1 246.306 375.178C257.486 374.469 261.887 350.876 263.591 330.406C263.982 320.614 263.84 313.519 263.84 313.519H263.804Z" fill="#EAEBF4"/>
<path d="M327.515 301.315C327.515 301.315 364.216 323.63 372.06 358.362C372.06 358.362 363.115 371.737 345.333 370.814C327.551 369.892 327.48 301.315 327.48 301.315H327.515Z" fill="white"/>
<path opacity="0.6" d="M328.154 318.237C329.432 338.601 333.371 370.176 345.368 370.779C354.1 371.24 360.666 368.26 365.138 365.102C357.472 342.22 337.986 325.51 328.154 318.237Z" fill="#EAEBF4"/>
<path d="M245.135 481.928C245.135 481.928 235.906 500.554 240.166 500.66C240.166 500.66 240.201 507.756 244.247 503.605C244.247 503.605 245.277 509.21 248.649 505.84C248.649 505.84 246.803 510.913 251.133 512.084C255.463 513.255 262.988 508.217 260.752 488.137C258.551 468.057 245.135 481.928 245.135 481.928Z" fill="#FFD5B6"/>
<path d="M241.905 491.152C243.608 493.388 245.419 495.552 247.442 497.538C248.294 498.354 249.145 499.17 249.997 499.986C250.175 500.128 250.388 500.27 250.636 500.483C253.05 502.221 255.534 503.924 258.161 505.379C258.551 505.592 258.977 505.805 259.368 506.017C260.858 502.221 261.639 496.51 260.716 488.172C258.516 468.092 245.099 481.964 245.099 481.964C245.099 481.964 243.041 486.115 241.301 490.514C241.479 490.727 241.692 490.94 241.905 491.188V491.152Z" fill="#EFBF9E"/>
<path d="M317.825 486.399C317.825 486.399 320.203 507.046 316.157 505.698C316.157 505.698 313.708 512.368 311.33 507.117C311.33 507.117 308.455 512.049 306.432 507.72C306.432 507.72 306.432 513.113 301.995 512.758C297.523 512.403 292.163 505.095 301.037 486.966C309.91 468.802 317.825 486.399 317.825 486.399Z" fill="#FFD5B6"/>
<path d="M317.719 496.155C315.341 497.68 312.927 499.099 310.372 500.27C309.307 500.767 308.207 501.228 307.142 501.689C306.929 501.76 306.68 501.831 306.361 501.938C303.486 502.753 300.575 503.499 297.629 503.995C297.168 504.066 296.707 504.137 296.281 504.173C296.139 500.093 297.381 494.452 301.072 486.931C309.946 468.766 317.861 486.363 317.861 486.363C317.861 486.363 318.393 490.975 318.535 495.694C318.287 495.835 318.003 495.942 317.754 496.119L317.719 496.155Z" fill="#EFBF9E"/>
<path d="M277.718 292.304C277.718 292.304 260.681 297.554 257.132 312.632C253.582 327.71 241.337 435.241 203.252 454.185C203.252 454.185 219.189 456.953 234.309 481.183C248.862 504.492 296.281 504.102 313.815 494.381C331.349 484.66 363.115 486.328 363.115 486.328C363.115 486.328 352.396 330.796 324.605 301.244C305.474 280.915 277.753 292.304 277.753 292.304H277.718Z" fill="white"/>
<path opacity="0.6" d="M349.024 373.085C341.038 392.491 327.338 409.271 308.845 421.156C281.693 438.611 249.145 444.607 217.343 442.052C213.084 447.445 208.399 451.667 203.217 454.221C203.217 454.221 219.153 456.988 234.274 481.219C248.826 504.527 296.245 504.137 313.779 494.416C331.313 484.696 363.08 486.363 363.08 486.363C363.08 486.363 358.927 425.804 349.024 373.085Z" fill="#EAEBF4"/>
<path d="M284.958 273.607L285.207 290.069L277.718 292.304C277.718 292.304 279.386 300.286 289.679 300.25C299.972 300.215 303.521 289.714 303.521 289.714L298.126 289.182L298.197 269.634L284.958 273.643V273.607Z" fill="#EFBF9E"/>
<path d="M298.162 281.767V269.598L284.959 273.607L285.136 284.499C289.431 283.399 293.796 282.476 298.162 281.767Z" fill="#D1A78B"/>
<path d="M227.956 217.021C227.956 217.021 223.732 201.66 214.61 212.196C205.488 222.733 214.255 246.29 232.534 240.152C250.813 234.015 227.991 217.021 227.991 217.021H227.956Z" fill="#FFD5B6"/>
<path d="M228.275 220.995C228.275 220.995 225.471 210.848 219.437 217.802C213.403 224.791 219.189 240.365 231.292 236.285C243.395 232.205 228.275 220.995 228.275 220.995Z" fill="#EFBF9E"/>
<path d="M320.736 171.149C320.736 171.149 362.831 201.128 343.203 246.538C323.54 291.913 240.343 283.151 229.34 237.385C218.337 191.62 251.31 166.289 278.96 162.883C306.609 159.478 320.736 171.149 320.736 171.149Z" fill="#FFD5B6"/>
<path d="M226.643 213.509C226.643 213.509 226.217 229.687 228.595 229.58C230.973 229.474 240.734 235.115 237.291 210.671C237.291 210.671 255.925 198.538 254.257 173.491C254.257 173.491 261.639 193.11 272.216 189.065C282.829 185.021 278.037 171.469 278.037 171.469C278.037 171.469 285.562 192.507 298.553 188.356C311.543 184.241 305.971 172.852 305.971 172.852C305.971 172.852 310.62 191.442 318.926 189.917C327.231 188.356 325.67 179.487 325.67 179.487C325.67 179.487 349.663 209.571 348.208 174.946C348.208 174.946 361.979 173.243 362.796 163.664C363.577 154.05 349.024 147.167 349.024 147.167C349.024 147.167 372.805 119.495 335.75 133.615C335.75 133.615 346.22 112.258 317.755 132.586C317.755 132.586 327.231 102.289 295.003 132.338C295.003 132.338 296.778 109.242 281.764 130.493C281.764 130.493 263.308 105.517 241.727 145.925C241.727 145.925 245.774 123.468 225.542 145.393C205.808 166.821 208.506 195.735 226.607 213.509H226.643Z" fill="#C6A958"/>
<path d="M270.619 212.587C271.258 216.879 274.026 220.001 276.759 219.576C279.492 219.15 281.196 215.354 280.521 211.061C279.883 206.768 277.114 203.646 274.381 204.072C271.648 204.498 269.944 208.294 270.619 212.587Z" fill="#383838"/>
<path d="M311.224 205.172C311.863 209.465 314.631 212.587 317.364 212.161C320.097 211.735 321.801 207.939 321.126 203.646C320.488 199.354 317.719 196.232 314.986 196.657C312.253 197.083 310.549 200.879 311.224 205.172Z" fill="#383838"/>
<path opacity="0.4" d="M322.511 228.942C322.972 237.563 328.899 244.232 335.75 243.877C342.6 243.523 347.782 236.25 347.321 227.629C346.859 219.008 340.932 212.338 334.081 212.693C327.231 213.048 322.049 220.321 322.511 228.942Z" fill="#EFA0A0"/>
<path opacity="0.4" d="M245.206 235.718C245.667 244.339 252.553 250.937 260.61 250.512C268.667 250.086 274.807 242.742 274.346 234.157C273.884 225.536 266.999 218.937 258.942 219.363C250.885 219.788 244.744 227.132 245.206 235.718Z" fill="#EFA0A0"/>
<path d="M301.427 210.458C301.427 210.458 301.214 211.061 301.285 212.196C301.321 213.296 301.889 215.141 303.699 216.418C304.586 217.021 305.686 217.482 306.858 217.66C308.029 217.873 309.271 217.944 310.478 217.802C311.117 217.802 311.72 217.66 312.324 217.553C312.892 217.447 313.424 217.376 313.992 217.27C314.56 217.199 315.234 217.021 315.696 217.021C316.121 217.057 316.547 216.986 316.973 217.057C317.825 217.163 318.5 217.412 318.961 217.873C319.351 218.405 319.813 219.008 319.884 219.93C320.026 220.782 319.99 221.74 319.919 222.627C319.777 223.514 319.564 224.4 319.316 225.181C318.783 226.742 318.074 228.019 317.47 228.871C316.867 229.687 316.441 230.148 316.441 230.148L316.831 229.97C317.08 229.828 317.541 229.722 318.003 229.438C318.961 228.871 320.239 227.806 321.339 226.174C321.871 225.358 322.368 224.4 322.759 223.301C323.078 222.201 323.398 220.959 323.291 219.576C323.291 218.227 322.83 216.631 321.729 215.318C320.594 214.006 318.89 213.332 317.399 213.154C316.618 213.048 315.837 213.154 315.092 213.154C314.347 213.225 313.885 213.403 313.282 213.509C311.862 213.793 311.081 214.183 310.017 214.36C307.993 214.822 306.183 214.857 304.799 214.431C303.415 213.97 302.492 212.906 302.066 211.984C301.605 211.097 301.463 210.458 301.463 210.458H301.427Z" fill="#DDAE8E"/>
<path d="M241.834 385.253C241.834 385.253 303.344 359.142 309.697 292.339C309.697 292.339 308.242 286.414 319.316 293.545C330.39 300.641 328.544 304.721 327.941 309.12C327.338 313.519 318.606 428.677 225.329 429.387C225.329 429.387 221.78 430.345 225.329 419.418C228.843 408.526 238 388.588 241.834 385.253Z" fill="#BEE2F4"/>
<path opacity="0.2" d="M217.627 533.157C217.627 540.253 248.648 545.965 286.91 545.965C325.173 545.965 356.194 540.217 356.194 533.157C356.194 526.097 325.173 520.35 286.91 520.35C248.648 520.35 217.627 526.097 217.627 533.157Z" fill="#4B838C"/>
<path d="M220.68 104.133C221.922 113.251 245.703 117.508 273.778 113.677C301.853 109.81 323.611 99.3085 322.333 90.1554C321.091 81.0378 297.31 76.7805 269.235 80.612C241.16 84.479 219.402 94.9803 220.68 104.133Z" stroke="#FFDF78" stroke-width="1.81" stroke-miterlimit="10"/>
<path d="M160.625 289.962C165.629 297.554 199.135 343.036 281.445 340.907C362.228 338.743 403.862 292.375 413.019 280.809L440.136 318.734C418.379 341.865 367.304 384.012 282.651 386.282C280.273 386.353 277.931 386.389 275.624 386.389C188.026 386.389 143.233 341.688 127.296 321.253L160.625 289.962Z" fill="#3CC8CF"/>
<path d="M381.039 314.299C381.039 314.299 381.039 303.301 373.479 306.069C365.919 308.8 359.211 312.845 367.977 322.885C367.977 322.885 374.863 330.016 372.095 319.018C372.095 319.018 380.862 333.421 376.744 315.683C376.744 315.683 383.027 326.823 381.039 314.299Z" fill="#FFD5B6"/>
<path d="M194.805 322.743C194.805 322.743 202.542 314.938 195.231 311.568C187.919 308.233 180.324 306.388 179.507 319.692C179.507 319.692 179.401 329.59 185.151 319.834C185.151 319.834 181.246 336.26 190.794 320.721C190.794 320.721 187.422 333.067 194.805 322.743Z" fill="#FFD5B6"/>
<path d="M167.165 334.482L165.128 332.979L176.613 325.184L178.969 326.922L174.907 340.193L172.87 338.69L176.238 328.243L176.155 328.183L167.165 334.482ZM170.281 330.402L175.836 334.5L174.705 336.033L169.15 331.935L170.281 330.402Z" fill="white"/>
<path d="M195.731 337.372L189.13 348.676L187.132 347.51L193.733 336.206L195.731 337.372Z" fill="white"/>
<path d="M204.047 356.052L207.931 347.034L209.962 347.908L209.302 349.441L209.408 349.486C209.818 349.05 210.303 348.781 210.862 348.678C211.423 348.572 212.005 348.648 212.608 348.908C213.219 349.17 213.669 349.541 213.96 350.018C214.256 350.494 214.381 351.023 214.334 351.606L214.428 351.646C214.844 351.231 215.352 350.977 215.954 350.883C216.561 350.787 217.192 350.88 217.845 351.161C218.675 351.518 219.24 352.072 219.538 352.822C219.837 353.572 219.77 354.45 219.336 355.456L216.73 361.509L214.598 360.592L217.064 354.868C217.305 354.308 217.332 353.835 217.146 353.449C216.961 353.058 216.654 352.771 216.223 352.585C215.71 352.365 215.24 352.353 214.812 352.549C214.39 352.743 214.069 353.094 213.85 353.603L211.428 359.227L209.343 358.331L211.846 352.518C212.047 352.053 212.066 351.62 211.904 351.221C211.746 350.824 211.442 350.528 210.991 350.334C210.686 350.203 210.374 350.162 210.056 350.21C209.74 350.255 209.447 350.387 209.177 350.604C208.908 350.818 208.694 351.111 208.534 351.483L206.173 356.966L204.047 356.052Z" fill="white"/>
<path d="M232.324 366.936C231.396 366.694 230.646 366.279 230.073 365.693C229.499 365.107 229.121 364.398 228.938 363.566C228.759 362.735 228.798 361.829 229.055 360.848C229.312 359.867 229.723 359.056 230.287 358.415C230.856 357.776 231.533 357.341 232.32 357.111C233.108 356.88 233.965 356.887 234.892 357.129C235.82 357.372 236.57 357.787 237.144 358.373C237.717 358.959 238.093 359.669 238.27 360.504C238.452 361.34 238.415 362.249 238.158 363.23C237.901 364.211 237.489 365.019 236.921 365.655C236.358 366.292 235.683 366.725 234.896 366.955C234.109 367.185 233.252 367.179 232.324 366.936ZM232.806 365.146C233.309 365.278 233.766 365.25 234.176 365.062C234.587 364.87 234.937 364.561 235.225 364.134C235.517 363.709 235.739 363.207 235.89 362.63C236.042 362.049 236.095 361.501 236.049 360.987C236.009 360.47 235.856 360.027 235.591 359.658C235.327 359.289 234.943 359.039 234.44 358.907C233.925 358.772 233.459 358.8 233.044 358.991C232.632 359.183 232.28 359.494 231.987 359.924C231.699 360.351 231.479 360.855 231.326 361.436C231.175 362.013 231.121 362.558 231.162 363.071C231.208 363.585 231.364 364.027 231.628 364.396C231.898 364.761 232.291 365.012 232.806 365.146Z" fill="white"/>
<path d="M259.135 364.788L257.014 364.722C256.984 364.503 256.909 364.29 256.787 364.084C256.67 363.878 256.497 363.701 256.268 363.552C256.04 363.404 255.748 363.305 255.393 363.255C254.917 363.188 254.501 363.235 254.147 363.396C253.797 363.558 253.601 363.803 253.559 364.133C253.515 364.415 253.586 364.66 253.772 364.867C253.963 365.074 254.297 365.27 254.774 365.453L256.383 366.041C257.275 366.369 257.914 366.779 258.301 367.272C258.692 367.766 258.84 368.362 258.746 369.059C258.656 369.67 258.401 370.185 257.98 370.603C257.565 371.018 257.026 371.312 256.365 371.486C255.703 371.66 254.968 371.69 254.157 371.576C252.968 371.409 252.045 371.025 251.389 370.425C250.734 369.821 250.4 369.061 250.386 368.147L252.651 368.246C252.69 368.699 252.859 369.061 253.157 369.331C253.454 369.601 253.867 369.773 254.394 369.847C254.939 369.924 255.391 369.873 255.752 369.696C256.117 369.519 256.322 369.266 256.369 368.937C256.408 368.659 256.333 368.413 256.143 368.202C255.958 367.991 255.648 367.805 255.214 367.645L253.605 367.064C252.7 366.738 252.056 366.314 251.673 365.792C251.291 365.264 251.152 364.647 251.256 363.938C251.337 363.339 251.572 362.842 251.963 362.45C252.359 362.054 252.869 361.777 253.494 361.619C254.123 361.458 254.826 361.432 255.602 361.542C256.742 361.702 257.604 362.071 258.19 362.648C258.78 363.226 259.095 363.939 259.135 364.788Z" fill="white"/>
<path d="M273.706 363.342L273.629 365.13L267.991 364.888L268.067 363.1L273.706 363.342ZM269.561 360.809L271.872 360.909L271.477 370.117C271.463 370.428 271.5 370.669 271.586 370.839C271.677 371.005 271.8 371.121 271.955 371.187C272.11 371.254 272.283 371.291 272.475 371.299C272.62 371.305 272.752 371.3 272.872 371.284C272.997 371.268 273.091 371.253 273.156 371.239L273.468 373.063C273.342 373.1 273.164 373.139 272.932 373.181C272.704 373.222 272.426 373.24 272.098 373.234C271.518 373.227 271 373.117 270.544 372.905C270.089 372.69 269.733 372.371 269.478 371.951C269.228 371.531 269.118 371.014 269.148 370.401L269.561 360.809Z" fill="white"/>
<path d="M300.917 362.446L301.089 364.228L295.471 364.769L295.299 362.988L300.917 362.446ZM296.46 360.513L298.763 360.291L299.648 369.465C299.678 369.775 299.748 370.008 299.857 370.164C299.97 370.316 300.108 370.414 300.271 370.458C300.434 370.503 300.61 370.516 300.801 370.497C300.945 370.483 301.076 370.46 301.193 370.427C301.314 370.394 301.405 370.366 301.467 370.343L302.029 372.106C301.91 372.16 301.739 372.224 301.514 372.297C301.294 372.37 301.022 372.426 300.696 372.466C300.121 372.539 299.593 372.502 299.112 372.355C298.631 372.205 298.235 371.939 297.924 371.558C297.617 371.177 297.437 370.68 297.382 370.069L296.46 360.513Z" fill="white"/>
<path d="M314.069 364.871L315.157 370.52L312.885 370.957L310.408 358.103L312.63 357.675L313.565 362.527L313.678 362.505C313.799 361.917 314.066 361.421 314.478 361.016C314.894 360.607 315.47 360.331 316.207 360.189C316.876 360.06 317.487 360.088 318.039 360.273C318.591 360.457 319.055 360.793 319.431 361.28C319.811 361.767 320.076 362.4 320.226 363.178L321.409 369.316L319.136 369.754L318.022 363.967C317.897 363.318 317.632 362.846 317.228 362.551C316.827 362.25 316.328 362.158 315.729 362.273C315.328 362.35 314.985 362.507 314.7 362.744C314.42 362.976 314.221 363.273 314.104 363.634C313.991 363.994 313.979 364.406 314.069 364.871Z" fill="white"/>
<path d="M339.578 365.061C338.638 365.352 337.765 365.408 336.96 365.228C336.158 365.043 335.463 364.647 334.873 364.04C334.283 363.429 333.836 362.632 333.532 361.651C333.234 360.686 333.155 359.783 333.296 358.941C333.44 358.094 333.781 357.364 334.318 356.752C334.855 356.136 335.571 355.689 336.467 355.412C337.045 355.234 337.619 355.159 338.19 355.187C338.764 355.211 339.308 355.355 339.823 355.62C340.341 355.883 340.807 356.279 341.22 356.807C341.632 357.331 341.965 358.004 342.22 358.826L342.429 359.504L334.74 361.88L334.28 360.39L339.849 358.669C339.714 358.247 339.506 357.898 339.225 357.624C338.943 357.346 338.611 357.16 338.23 357.068C337.853 356.975 337.453 356.994 337.03 357.125C336.578 357.264 336.215 357.497 335.941 357.823C335.666 358.144 335.487 358.511 335.405 358.925C335.326 359.333 335.35 359.747 335.475 360.168L335.878 361.468C336.046 362.014 336.291 362.451 336.611 362.78C336.931 363.105 337.301 363.316 337.724 363.413C338.145 363.506 338.596 363.478 339.076 363.33C339.398 363.231 339.675 363.096 339.908 362.926C340.14 362.752 340.323 362.545 340.459 362.307C340.595 362.069 340.671 361.802 340.687 361.507L342.823 361.102C342.862 361.687 342.761 362.24 342.52 362.761C342.282 363.276 341.915 363.733 341.419 364.132C340.921 364.526 340.307 364.836 339.578 365.061Z" fill="white"/>
<path d="M355.761 359.335L351.975 350.276L354.046 349.411L354.677 350.921L354.771 350.882C354.718 350.29 354.833 349.769 355.115 349.318C355.4 348.862 355.803 348.525 356.322 348.309C356.44 348.26 356.574 348.21 356.724 348.161C356.877 348.107 357.007 348.069 357.113 348.048L357.934 350.012C357.83 350.018 357.675 350.05 357.469 350.109C357.265 350.162 357.072 350.226 356.891 350.301C356.502 350.464 356.187 350.695 355.947 350.993C355.709 351.287 355.564 351.618 355.51 351.986C355.456 352.355 355.51 352.732 355.671 353.117L357.896 358.443L355.761 359.335Z" fill="white"/>
<path d="M373.854 351.289C372.988 351.757 372.142 351.98 371.318 351.961C370.495 351.935 369.736 351.681 369.04 351.2C368.342 350.715 367.749 350.02 367.26 349.117C366.78 348.228 366.528 347.357 366.503 346.504C366.479 345.645 366.672 344.863 367.081 344.158C367.487 343.45 368.103 342.873 368.928 342.427C369.461 342.14 370.01 341.955 370.575 341.872C371.143 341.784 371.705 341.82 372.261 341.98C372.821 342.137 373.354 342.435 373.862 342.873C374.368 343.307 374.825 343.903 375.235 344.66L375.572 345.284L368.49 349.107L367.749 347.735L372.879 344.966C372.664 344.578 372.392 344.276 372.063 344.062C371.732 343.843 371.371 343.726 370.98 343.71C370.592 343.691 370.203 343.788 369.813 343.998C369.397 344.223 369.086 344.521 368.88 344.894C368.673 345.263 368.569 345.658 368.569 346.079C368.57 346.494 368.674 346.896 368.879 347.284L369.526 348.482C369.797 348.985 370.122 349.366 370.5 349.627C370.876 349.884 371.281 350.019 371.714 350.032C372.146 350.041 372.583 349.927 373.025 349.688C373.321 349.528 373.567 349.342 373.763 349.13C373.956 348.914 374.096 348.676 374.183 348.416C374.271 348.156 374.293 347.88 374.252 347.588L376.268 346.775C376.42 347.342 376.428 347.904 376.293 348.461C376.16 349.013 375.888 349.532 375.478 350.02C375.067 350.504 374.525 350.927 373.854 351.289Z" fill="white"/>
<path d="M383.245 330.171L388.323 337.897L386.629 339.065L381.209 331.575L383.245 330.171ZM389.742 341.763C389.423 341.984 389.072 342.06 388.689 341.993C388.309 341.923 388.008 341.727 387.786 341.405C387.568 341.089 387.494 340.742 387.563 340.362C387.636 339.981 387.832 339.68 388.151 339.459C388.464 339.244 388.811 339.17 389.194 339.237C389.581 339.302 389.883 339.492 390.101 339.808C390.248 340.022 390.328 340.254 390.341 340.504C390.357 340.752 390.313 340.989 390.21 341.215C390.109 341.436 389.953 341.618 389.742 341.763Z" fill="white"/>
<path d="M311.082 256.543C311.082 256.543 321.765 249.163 316.512 241.5C312.04 234.937 303.273 243.31 290.815 235.186C278.321 227.061 273.991 240.223 278.428 248.915C282.864 257.607 297.701 263.922 311.117 256.543H311.082Z" fill="#DD8C83"/>
<path d="M290.425 239.939C284.568 237.988 279.848 239.656 276.76 242.813C276.298 235.469 281.055 228.835 290.78 235.186C303.273 243.31 312.005 234.937 316.477 241.5C321.73 249.164 311.047 256.543 311.047 256.543C306.255 259.204 301.25 260.055 296.636 259.7C301.25 253.492 300.363 243.274 290.389 239.939H290.425Z" fill="#7C423A"/>
</g>
<defs>
<clipPath id="clip0_279_58">
<rect width="356" height="470" fill="white" transform="matrix(-1 0 0 1 462 76)"/>
</clipPath>
</defs>
</svg>
